<?xml version="1.0" encoding="UTF-8"?>
<svg width="13px" height="14px" viewBox="0 0 13 14" version="1.1" xmlns="http://www.w3.org/2000/svg" xmlns:xlink="http://www.w3.org/1999/xlink">
    <!-- Generator: Sketch 52.6 (67491) - http://www.bohemiancoding.com/sketch -->
    <title>关闭icon</title>
    <desc>Created with Sketch.</desc>
    <g id="移动营销V3.3" stroke="none" stroke-width="1" fill="none" fill-rule="evenodd">
        <g id="pc客服版本-删除常用语" transform="translate(-1118.000000, -367.000000)" fill="#959CB6">
            <g id="弹窗001" transform="translate(766.000000, 344.000000)">
                <g id="分组-34">
                    <g id="分组-35">
                        <g id="分组-25">
                            <path d="M359.478495,29.9999959 L364.790322,24.3202843 C365.069893,24.0213517 365.069893,23.5231319 364.790322,23.2241994 C364.510752,22.9252669 364.044803,22.9252669 363.858422,23.2241994 L358.546595,29.0035629 L353.234767,23.3238513 C352.955197,23.0249188 352.489248,23.0249188 352.209678,23.3238513 C351.930107,23.6227838 351.930107,24.1210036 352.209678,24.3202925 L357.521505,30.0000041 L352.209678,35.6797157 C351.930107,35.9786483 351.930107,36.4768681 352.209678,36.7758006 C352.489248,37.0747331 352.955197,37.0747331 353.141578,36.7758006 L358.453405,31.096089 L363.765233,36.7758006 C364.044803,37.0747331 364.510752,37.0747331 364.697133,36.7758006 C364.976703,36.4768681 364.976703,35.9786483 364.697133,35.6797157 L359.478487,30.0000041 L359.478495,29.9999959 Z" id="关闭icon"></path>
                        </g>
                    </g>
                </g>
            </g>
        </g>
    </g>
</svg>