<?xml version="1.0" encoding="UTF-8"?>
<svg width="14px" height="14px" viewBox="0 0 14 14" version="1.1" xmlns="http://www.w3.org/2000/svg" xmlns:xlink="http://www.w3.org/1999/xlink">
    <!-- Generator: Sketch 52.6 (67491) - http://www.bohemiancoding.com/sketch -->
    <title>编辑</title>
    <desc>Created with Sketch.</desc>
    <g id="移动营销V3.3" stroke="none" stroke-width="1" fill="none" fill-rule="evenodd">
        <g id="pc客服版本-弹窗" transform="translate(-1450.000000, -193.000000)" fill="#C3C6D6" fill-rule="nonzero">
            <g id="编辑" transform="translate(1450.000000, 193.000000)">
                <path d="M0.928732364,13.6878878 C0.447481804,13.6878878 0.294083188,13.472829 0.294083188,13.2081412 C0.294083188,12.9434534 0.447481804,12.7283945 0.928732364,12.7283945 L13.0607582,12.7283945 C13.5254658,12.7404258 13.7149582,12.9509729 13.7149582,13.2081412 C13.7149582,13.4653095 13.5269697,13.6758566 13.0607582,13.6878878 L0.928732364,13.6878878 Z M12.0305812,1.82656544 L10.7973767,0.64599766 C10.269505,0.139180664 9.47544153,0.139180664 8.94756982,0.64599766 L8.33096754,1.2370335 L7.80309583,1.7438505 L1.54834246,7.73241216 C1.45961189,7.816631 1.41599856,7.90084985 1.41599856,8.02717812 L1.41599856,10.3898176 C1.41599856,10.6003647 1.59195579,10.8109118 1.8566436,10.8109118 L4.32305272,10.8109118 C4.45539662,10.8109118 4.54262329,10.7688024 4.63135386,10.6845836 L10.8861072,4.694518 L11.4139789,4.187701 L12.0305812,3.59666516 C12.5599568,3.09135207 12.5599568,2.29127301 12.0305812,1.82656544 Z M3.15602011,7.702334 L8.32946363,2.76650794 L9.70704336,4.14107985 L4.61029915,9.10397625 L3.15602011,7.702334 Z M2.29728864,9.96721944 L2.29728864,8.44827236 L3.88240768,9.96721944 L2.29728864,9.96721944 Z M10.5537436,3.39514148 L9.08292154,1.95439762 L9.69952382,1.36336178 C9.87548106,1.19492408 10.1401689,1.19492408 10.3161261,1.36336178 L11.1703458,2.2145737 C11.3463031,2.3830114 11.3463031,2.63566794 11.1703458,2.80560955 L10.5537436,3.39514148 Z" id="形状"></path>
            </g>
        </g>
    </g>
</svg>