<?xml version="1.0" encoding="UTF-8"?>
<svg width="32px" height="32px" viewBox="0 0 32 32" version="1.1" xmlns="http://www.w3.org/2000/svg" xmlns:xlink="http://www.w3.org/1999/xlink">
    <!-- Generator: Sketch 52.6 (67491) - http://www.bohemiancoding.com/sketch -->
    <title>群</title>
    <desc>Created with Sketch.</desc>
    <g id="移动营销V3.3" stroke="none" stroke-width="1" fill="none" fill-rule="evenodd">
        <g id="用户管理—账号详情" transform="translate(-795.000000, -320.000000)">
            <g id="默认用户头像" transform="translate(749.000000, 258.000000)">
                <g id="群" transform="translate(46.000000, 62.000000)">
                    <rect id="矩形" fill="#DBDDE7" x="0" y="0" width="32" height="32" rx="16"></rect>
                    <g id="默认群头像" transform="translate(6.000000, 7.000000)" fill="#FFFFFF" fill-rule="nonzero">
                        <g id="群组">
                            <path d="M16.8587013,16.8519981 C17.1581079,14.8317126 16.4960446,12.9703256 14.8724685,11.2678588 C17.2780767,11.2678588 19.2339306,13.1435329 19.2339306,15.4498832 L19.2339306,15.6999616 C19.2339306,16.901799 18.1391285,16.8158399 16.8586798,16.8519981 L16.8587013,16.8519981 Z M14.3849874,10.7673153 C12.3389851,9.4159465 13.5768732,9.98111513 11.0569035,9.19214351 C12.8178294,8.18723218 13.4224863,7.39686408 13.5768732,4.50714782 C15.4493246,4.50714782 16.9711076,6.02368865 16.9711076,7.88750332 C16.9711076,9.75131799 16.2573959,10.7673153 14.384966,10.7673153 L14.3849874,10.7673153 Z M9.7159117,18.0136596 L6.09490944,18.0136596 C2.69332735,18.0136596 0,18.0136596 0,16.2928666 L0,15.9347861 C0,12.632419 2.73324537,9.94680454 6.09490944,9.94680454 L9.71595467,9.94680454 C13.0776187,9.94680454 15.8108641,12.6324405 15.8108641,15.9347861 L15.8108641,16.2928666 C15.8108641,18.0136596 12.9878784,18.0136596 9.71595467,18.0136596 L9.71593318,18.0136596 L9.7159117,18.0136596 Z M7.73086056,9.48925128 C5.06743949,9.48925128 2.90280025,7.36064138 2.90280025,4.74463638 C2.90280025,2.1286099 5.06743949,0 7.73083907,0 C10.3942601,0 12.5588779,2.1286099 12.5588779,4.7446149 C12.5588779,7.36064138 10.3942387,9.48922979 7.73083907,9.48922979 L7.73086056,9.48925128 Z" id="形状"></path>
                        </g>
                    </g>
                </g>
            </g>
        </g>
    </g>
</svg>