<?xml version="1.0" encoding="UTF-8"?>
<svg width="30px" height="26px" viewBox="0 0 30 26" version="1.1" xmlns="http://www.w3.org/2000/svg" xmlns:xlink="http://www.w3.org/1999/xlink">
    <!-- Generator: Sketch 52.6 (67491) - http://www.bohemiancoding.com/sketch -->
    <title>暂无消息icon</title>
    <desc>Created with Sketch.</desc>
    <g id="移动营销V3.3" stroke="none" stroke-width="1" fill="none" fill-rule="evenodd">
        <g id="pc客服版本首页—暂无消息" transform="translate(-575.000000, -299.000000)">
            <g id="分组-68" transform="translate(360.000000, 84.000000)">
                <g id="分组-48">
                    <g id="分组-50">
                        <g id="分组-49">
                            <g id="分组-43">
                                <g id="分组-42">
                                    <g id="暂无消息icon" transform="translate(215.000000, 215.000000)">
                                        <path d="M14.9416841,8.8817842e-15 C6.69167445,8.8817842e-15 1.687539e-13,5.59167317 1.687539e-13,12.5033479 L14.9416841,8.8817842e-15 Z M1.687539e-13,12.5033479 C1.687539e-13,16.646686 2.40166946,20.313357 6.1050071,22.5866929 C6.1050071,22.5866929 8.37834308,24.5850286 1.44833502,25.74003 C26.6383643,27.1700316 29.9017015,19.3966892 29.9017015,12.5033479 C29.9017015,5.61000653 23.210027,8.8817842e-15 14.9600174,8.8817842e-15 L1.687539e-13,12.5033479 Z" id="形状" fill="#C3C6D6" fill-rule="nonzero"></path>
                                        <circle id="椭圆形" fill="#FFFFFF" cx="10.595" cy="12.595" r="1.595"></circle>
                                        <circle id="椭圆形" fill="#FFFFFF" cx="20.595" cy="12.595" r="1.595"></circle>
                                    </g>
                                </g>
                            </g>
                        </g>
                    </g>
                </g>
            </g>
        </g>
    </g>
</svg>