<?xml version="1.0" encoding="UTF-8"?>
<svg width="30px" height="29px" viewBox="0 0 30 29" version="1.1" xmlns="http://www.w3.org/2000/svg" xmlns:xlink="http://www.w3.org/1999/xlink">
    <!-- Generator: Sketch 52.6 (67491) - http://www.bohemiancoding.com/sketch -->
    <title>聊天</title>
    <desc>Created with Sketch.</desc>
    <g id="移动营销V3.2" stroke="none" stroke-width="1" fill="none" fill-rule="evenodd">
        <g id="pc客服版本首页" transform="translate(-360.000000, -16.000000)" fill-rule="nonzero">
            <g id="分组-12">
                <g id="聊天" transform="translate(360.000000, 16.000000)">
                    <path d="M13.5149073,2.73201343e-05 C6.05544077,2.73201343e-05 0,5.12894787 0,11.4548816 C0,15.4158713 2.37066925,18.9036755 5.96487797,20.9586887 C6.00999638,22.7322267 5.85900962,25.2892352 4.72643092,25.9988448 C4.72643092,25.9988448 7.92771801,26.1614307 10.5403037,22.6289155 L10.5403034,22.6289154 C11.5156374,22.8130059 12.5065787,22.9070209 13.4999936,22.9097142 L13.7415723,22.9097142 C20.0837329,22.8060613 25.3693178,19.0076479 26.6827232,13.938016 C26.8941046,13.1396476 26.9999724,12.3121574 26.9999724,11.4548543 C27.0149037,5.12892055 20.9747096,0 13.5149263,0 L13.5149073,2.73201343e-05 Z M7.55321393,12.8433699 C6.57841374,12.8446933 5.78707626,12.0780522 5.78571644,11.131029 C5.78571138,11.1275133 5.78571746,11.1239976 5.78573466,11.1204819 L5.7857346,11.1204696 C5.78110763,10.1734547 6.56758164,9.40210686 7.54237052,9.39760971 C7.54610601,9.39759248 7.54984153,9.39758678 7.55357705,9.39759259 C8.52837731,9.39608169 9.3198706,10.1625717 9.3214259,11.1095949 C9.32143186,11.113224 9.32142596,11.1168531 9.3214082,11.1204821 L9.32140826,11.1204943 C9.32603528,12.0675092 8.53956122,12.838857 7.56477233,12.8433542 C7.56103684,12.8433714 7.55730133,12.8433771 7.55356581,12.8433713 L7.55321393,12.8433699 Z M13.6605341,12.8433713 C12.6858301,12.8448822 11.894415,12.0783923 11.8928598,11.1313693 C11.8928539,11.1277402 11.8928598,11.1241111 11.8928775,11.1204821 L11.8928775,11.1204698 C11.8882509,10.1734551 12.6746473,9.40210745 13.64934,9.39761029 C13.6530751,9.39759307 13.6568102,9.39758736 13.6605454,9.39759318 C14.6352495,9.39589476 15.4268204,10.1622309 15.4285682,11.1092539 C15.4285751,11.1129963 15.4285694,11.1167388 15.4285511,11.1204812 L15.4285511,11.120494 C15.4331777,12.0675087 14.6467813,12.8388563 13.6720886,12.8433535 C13.6682368,12.8433713 13.6643849,12.8433768 13.6605331,12.84337 L13.6605341,12.8433713 Z M19.4464229,12.8433713 C18.4716227,12.8448822 17.6801294,12.0783922 17.6785741,11.131369 C17.6785681,11.12774 17.678574,11.1241109 17.6785918,11.1204818 L17.6785917,11.1204695 C17.6739648,10.1734546 18.4604388,9.40210686 19.4352277,9.39760971 C19.4389631,9.39759248 19.4426987,9.39758678 19.4464342,9.39759259 C20.4212345,9.39608169 21.2127277,10.1625717 21.214283,11.1095948 C21.214289,11.1132239 21.2142831,11.116853 21.2142653,11.120482 L21.2142654,11.1204942 C21.2188924,12.0675091 20.4324184,12.8388569 19.4576295,12.843354 C19.453894,12.8433713 19.4501585,12.843377 19.446423,12.8433711 Z" id="形状" fill="#FFFFFF"></path>
                    <path d="M29.9999768,19.6612495 C29.9999768,17.8979791 29.2828357,16.2574899 28.0771223,15 C26.7499801,20.2589486 21.4092643,24.1997411 15,24.3070779 C16.541069,25.9630144 18.9064365,27.0209057 21.5464206,27.0209057 C22.1871328,27.0209057 22.79749,26.9598805 23.3928462,26.8371119 C25.0253451,29.1065323 27.0242753,28.9991984 27.0242753,28.9991984 C26.3071342,28.5544332 26.2157044,26.9135715 26.2460623,25.7637908 C28.5199884,24.4452857 30,22.191301 30,19.6612783 L29.9999768,19.6612495 Z" id="路径" fill="#FDBE32"></path>
                </g>
            </g>
        </g>
    </g>
</svg>