<?xml version="1.0" standalone="no"?>
<!DOCTYPE svg PUBLIC "-//W3C//DTD SVG 1.1//EN" "http://www.w3.org/Graphics/SVG/1.1/DTD/svg11.dtd">
<svg t="1559627011937" class="icon" style="" viewBox="0 0 1024 1024" version="1.1" xmlns="http://www.w3.org/2000/svg" p-id="1119" xmlns:xlink="http://www.w3.org/1999/xlink" width="14" height="14">
<defs>
<style type="text/css">
 * { fill: #C3C6D6; }
</style>
</defs>
<path d="M810.64 85.4l-29.9 0-537.5 0L213.44 85.4c-70.4 0-128 57.6-128 128l0 597.2c0 70.4 57.6 128 128 128l597.2 0c70.4 0 128-57.6 128-128L938.64 213.4C938.54 143 880.94 85.4 810.64 85.4zM729.54 136.6l0 324.2L294.44 460.8 294.44 136.6 729.54 136.6zM887.34 810.6c0 20.4-8 39.6-22.6 54.2-14.6 14.6-33.8 22.6-54.2 22.6L213.44 887.4c-20.4 0-39.6-8-54.2-22.6-14.6-14.6-22.6-33.8-22.6-54.2L136.64 213.4c0-20.4 8-39.6 22.6-54.2 14.6-14.6 33.8-22.6 54.2-22.6l29.9 0 0 375.4 537.5 0L780.84 136.6l29.9 0c20.4 0 39.6 8 54.2 22.6s22.6 33.8 22.6 54.2L887.34 810.6zM615.44 433.4c14.1 0 25.6-11.5 25.6-25.6L641.04 228.6c0-14.1-11.5-25.6-25.6-25.6s-25.6 11.5-25.6 25.6l0 179.2C589.84 421.9 601.34 433.4 615.44 433.4z" p-id="1120">
</path>
</svg>